<svg width="261" height="93" viewBox="0 0 261 93" fill="none" xmlns="http://www.w3.org/2000/svg">
<path d="M221.476 92.2109C218.491 92.2109 215.506 92.2488 212.522 92.1902C211.564 92.1712 210.616 91.8538 209.652 91.7555C208.55 91.6434 207.435 91.5761 206.328 91.5848C205.527 91.5899 204.727 91.7521 203.926 91.8366C202.357 92.0022 201.101 91.5123 199.903 90.5516C197.905 88.9492 195.313 88.6629 192.805 88.4231C191.577 88.3058 190.567 88.0109 189.656 87.2951C188.266 86.2033 186.689 85.6686 184.806 85.7841C184.216 85.8203 183.501 85.5271 183.007 85.1873C181.781 84.3404 180.493 83.5004 179.515 82.4379C177.899 80.682 176.504 78.7571 175.022 76.9012C174.632 76.413 174.253 75.9163 173.882 75.4144C173.357 74.7055 172.859 73.9776 172.321 73.2773C171.577 72.3096 170.857 71.3179 170.03 70.4106C168.998 69.2774 168.561 68.0855 168.85 66.5883C169.115 65.2085 168.738 63.8648 167.524 62.9093C165.565 61.369 164.943 59.363 164.663 57.1207C164.473 55.6063 164.034 54.0953 163.499 52.6464C162.572 50.1316 161.205 47.7255 161.045 45.0295C160.9 42.5889 161.013 40.1931 162.849 38.1043C163.555 37.3005 164.105 36.1604 164.16 35.1479C164.248 33.4783 165.043 32.1001 166.09 30.9807C167.433 29.5439 167.848 27.8967 168.057 26.2115C168.369 23.6984 169.646 21.8528 171.795 20.3419C173.447 19.181 174.543 17.57 175.184 15.7831C175.645 14.4946 176.47 13.5356 177.545 12.6749C179.417 11.1743 181.235 9.61507 183.143 8.15413C183.783 7.66255 184.591 7.21926 185.394 7.06403C187.247 6.70526 188.814 5.9653 190.209 4.81656C190.628 4.47331 191.213 4.24391 191.767 4.10075C194.667 3.35217 197.579 2.63463 200.495 1.93434C201.506 1.69114 202.54 1.52901 203.565 1.33582C204.218 1.21336 204.885 1.13919 205.527 0.977057C207.062 0.588967 208.578 0.338865 210.204 0.519973C211.144 0.623464 212.187 0.482027 213.093 0.204327C214.858 -0.335549 216.148 0.250898 217.387 1.30133C218.623 2.34831 219.248 2.35693 220.627 1.48589C221.725 0.792498 222.186 0.763176 223.073 1.71011C224.412 3.14346 226.021 3.55397 228.047 3.45738C230.019 3.36424 231.66 4.39225 233.146 5.48924C235.956 7.56423 238.647 9.75478 242.241 10.7638C243.186 11.0294 243.817 12.1161 244.717 12.6508C247.113 14.0721 248.2 16.2747 249.206 18.5498C249.219 18.5791 249.217 18.617 249.238 18.6412C250.541 20.1849 250.829 22.0702 251.449 23.8588C251.735 24.6867 252.481 25.4664 253.217 26.0632C255.099 27.5914 255.907 29.3714 255.297 31.6396C254.907 33.0936 255.216 34.3873 256.5 35.3911C257.685 36.3156 258.485 37.4161 258.869 38.8218C259.139 39.8084 259.572 40.7847 260.103 41.6799C260.753 42.7752 260.928 43.8946 260.871 45.1072C260.834 45.9333 261.056 46.7734 260.986 47.5961C260.898 48.6293 260.887 49.7694 260.389 50.6508C259.286 52.6068 258.886 54.6317 258.939 56.7792C258.952 57.357 258.939 57.9348 258.973 58.5109C259.107 60.6532 258.63 62.5746 256.807 64.1063C255.92 64.8514 255.541 65.8415 255.528 66.9644C255.511 68.4322 254.715 69.6085 253.6 70.5952C252.652 71.4334 252.07 72.3873 251.872 73.5929C251.773 74.2001 251.515 74.8693 251.091 75.3316C249.972 76.5545 248.727 77.6825 247.524 78.8399C247.283 79.071 247.032 79.3781 246.727 79.4539C245.215 79.8265 244.243 80.8545 243.164 81.7618C242.958 81.9343 242.742 82.1499 242.489 82.2189C240.325 82.807 239.016 84.4543 237.321 85.622C235.869 86.6207 234.396 87.5987 232.88 88.5128C232.373 88.8181 231.716 88.9958 231.106 89.0596C229.415 89.239 227.921 89.8116 226.559 90.7103C224.731 91.9177 223.751 92.2074 221.482 92.2109H221.476ZM202.676 11.1381C199.956 11.2657 197.157 11.7125 194.85 13.5839C194.121 14.1756 193.198 14.5636 192.451 15.138C190.771 16.4316 189.153 17.7908 187.497 19.1121C186.642 19.7934 185.793 20.4868 184.883 21.1042C183.932 21.7476 182.794 22.1943 181.949 22.9274C180.602 24.0934 179.468 25.4612 178.173 26.6807C176.17 28.5642 174.089 30.3201 172.886 32.8401C172.025 34.6425 171.076 36.3898 170.81 38.3458C170.547 40.2828 170.432 42.237 170.264 44.1844C170.179 45.1727 170.049 46.1645 170.079 47.1494C170.123 48.5499 170.266 49.9505 170.42 51.3476C170.626 53.1967 170.886 55.0129 171.891 56.7153C172.599 57.9141 173.168 59.2405 173.455 60.5704C173.861 62.4608 174.409 64.2357 175.764 65.7604C176.106 66.1468 176.244 66.6763 176.511 67.123C177.09 68.0959 177.511 69.2084 178.318 69.9915C179.868 71.5007 181.642 72.8202 183.32 74.2208C183.604 74.4588 183.877 74.7106 184.15 74.9607C185.857 76.5269 187.524 78.1327 189.29 79.6402C189.825 80.0973 190.607 80.4526 191.328 80.5578C192.714 80.7597 193.824 81.3392 194.912 82.0826C196.082 82.8812 197.404 83.3883 198.911 83.3814C202.327 83.3659 205.742 83.378 209.158 83.3314C210.618 83.3124 211.993 82.9778 213.249 82.2206C214.513 81.4582 215.892 81.0374 217.455 81.4341C217.952 81.56 218.515 81.6169 219.02 81.5427C221.937 81.1132 224.855 80.6751 227.75 80.1439C228.546 79.9973 229.287 79.5488 230.017 79.1797C230.722 78.8227 231.392 78.4087 232.051 77.9844C233.191 77.253 234.434 76.608 235.41 75.7231C237.172 74.1276 238.8 72.4045 240.425 70.6866C241.173 69.8966 241.811 69.0152 242.44 68.1407C242.877 67.5301 243.083 66.7505 243.616 66.2365C245.09 64.8135 245.653 63.0645 246.162 61.2482C246.409 60.3651 246.934 59.551 247.281 58.6868C247.893 57.1638 248.846 55.6546 248.981 54.0919C249.288 50.5508 249.262 46.9803 249.213 43.4237C249.19 41.6954 248.744 40.0344 247.52 38.5579C246.753 37.6334 246.186 36.4933 245.853 35.3704C245.42 33.9129 244.795 32.5986 243.77 31.4223C242.889 30.4098 242.395 29.3214 242.623 27.957C242.791 26.9463 242.391 25.9873 241.57 25.2318C240.135 23.914 238.732 22.5669 237.242 21.3026C235.187 19.5605 233.153 17.7822 230.946 16.2109C228.902 14.7551 226.497 13.8927 223.847 13.8565C222.883 13.8427 222.169 13.5494 221.519 12.9388C220.28 11.7763 218.783 11.2968 217.005 11.64C215.745 11.8832 214.562 11.6901 213.447 11.0915C212.355 10.5034 211.225 10.4723 209.991 10.7742C208.816 11.0605 207.586 11.2312 206.369 11.2933C205.216 11.352 204.053 11.2036 202.681 11.1364L202.676 11.1381Z" fill="#A71714"/>
<path d="M181.885 57.357C181.495 56.4997 181.337 55.4321 180.672 54.8232C178.794 53.1001 178.233 50.994 178.288 48.7535C178.368 45.3987 178.664 42.0473 178.915 38.6994C178.994 37.6438 179.612 36.8158 180.384 36.0052C182.87 33.3937 186.011 31.4809 188.825 29.2214C190.46 27.9087 192.008 26.5082 193.62 25.1714C194.135 24.7454 194.683 24.3142 195.299 24.0365C197.31 23.1275 199.35 22.272 201.399 21.4354C201.834 21.2578 202.361 21.2785 202.832 21.1612C203.736 20.9369 204.695 20.792 205.518 20.4109C207.371 19.5519 208.435 19.564 209.899 20.8886C211.042 21.9235 212.234 22.2271 213.711 21.5958C214.583 21.2233 215.406 21.3302 216.182 21.8804C217.585 22.8739 219.09 23.3155 220.921 22.8567C221.499 22.7118 222.422 23.0085 222.913 23.3931C224.476 24.6177 226.188 25.4836 228.087 26.2546C230.468 27.2223 232.671 28.6228 234.099 30.7858C234.506 31.4033 235.208 31.8552 235.671 32.4503C236.27 33.2178 236.945 33.9957 237.267 34.8668C237.935 36.6813 238.619 38.5321 238.886 40.4173C239.28 43.1926 239.532 45.9696 238.414 48.7655C237.719 50.5042 237.798 52.4912 237.406 54.3454C237.255 55.0578 236.931 55.8546 236.398 56.36C235.065 57.6278 234.125 59.0232 233.75 60.7566C233.647 61.2396 233.349 61.7088 233.052 62.1313C232.315 63.1714 231.605 64.2426 230.737 65.1895C229.279 66.7798 227.737 68.308 226.162 69.8035C225.802 70.145 225.153 70.2209 224.657 70.4572C223.823 70.8539 222.941 71.2006 222.196 71.7111C220.981 72.5442 219.685 72.8892 218.171 72.8271C216.38 72.7547 214.538 72.5908 212.799 72.8754C210.377 73.2721 208.038 74.0724 205.648 74.6485C204.742 74.8676 203.797 74.9797 202.862 75.0746C201.676 75.1953 200.48 75.3212 199.291 75.304C198.444 75.2919 197.504 75.2177 196.771 74.8762C194.361 73.7568 192.021 72.5097 190.281 70.5348C190.044 70.2657 189.722 70.0346 189.39 69.8673C186.672 68.4891 185.324 66.2537 184.525 63.6251C184.337 63.0024 183.966 62.3504 183.474 61.895C182.126 60.6445 181.493 59.1991 181.608 57.4622C181.702 57.426 181.794 57.3898 181.889 57.3535L181.885 57.357Z" fill="#A71714"/>
<path d="M60.476 92.2109C57.4908 92.2109 54.5056 92.2488 51.5223 92.1902C50.5636 92.1712 49.6162 91.8538 48.6519 91.7555C47.5501 91.6434 46.4352 91.5761 45.3277 91.5848C44.5272 91.5899 43.7268 91.7521 42.9263 91.8366C41.3575 92.0022 40.1012 91.5123 38.9034 90.5516C36.9051 88.9492 34.3135 88.6629 31.8048 88.4231C30.5768 88.3058 29.5673 88.0109 28.6557 87.2951C27.2657 86.2033 25.6893 85.6686 23.8059 85.7841C23.2164 85.8203 22.5007 85.5271 22.0072 85.1873C20.7811 84.3404 19.4929 83.5004 18.5154 82.4379C16.8994 80.682 15.5038 78.7571 14.0216 76.9012C13.6317 76.413 13.2531 75.9163 12.8821 75.4144C12.3566 74.7055 11.8594 73.9776 11.3207 73.2773C10.5768 72.3096 9.85732 71.3179 9.0305 70.4106C7.99839 69.2774 7.56143 68.0855 7.8496 66.5883C8.11516 65.2085 7.73847 63.8648 6.52367 62.9093C4.56492 61.369 3.94339 59.363 3.66276 57.1207C3.47254 55.6063 3.0337 54.0953 2.49881 52.6464C1.57217 50.1316 0.204808 47.7255 0.0447176 45.0295C-0.100306 42.5889 0.0126994 40.1931 1.84903 38.1043C2.55531 37.3005 3.10527 36.1604 3.15989 35.1479C3.24841 33.4783 4.04321 32.1001 5.09039 30.9807C6.43327 29.5439 6.84762 27.8967 7.05668 26.2115C7.36932 23.6984 8.64628 21.8528 10.7953 20.3419C12.447 19.181 13.5432 17.57 14.1835 15.7831C14.645 14.4946 15.4699 13.5356 16.5453 12.6749C18.4174 11.1743 20.2349 9.61507 22.1428 8.15413C22.7832 7.66255 23.5912 7.21926 24.3935 7.06403C26.2468 6.70526 27.8138 5.9653 29.2094 4.81656C29.6275 4.47331 30.2133 4.24391 30.767 4.10075C33.6675 3.35217 36.5792 2.63463 39.4948 1.93434C40.5062 1.69114 41.5401 1.52901 42.5647 1.33582C43.2183 1.21336 43.885 1.13919 44.5272 0.977057C46.0622 0.588967 47.5784 0.338865 49.2038 0.519973C50.1436 0.623464 51.187 0.482027 52.0929 0.204327C53.8577 -0.335549 55.1478 0.250898 56.3871 1.30133C57.6226 2.34831 58.2479 2.35693 59.6266 1.48589C60.7246 0.792498 61.1861 0.763176 62.0732 1.71011C63.4123 3.14346 65.0207 3.55397 67.0473 3.45738C69.0192 3.36424 70.6596 4.39225 72.1457 5.48924C74.9557 7.56423 77.6471 9.75478 81.2407 10.7638C82.1862 11.0294 82.8171 12.1161 83.7174 12.6508C86.1131 14.0721 87.1998 16.2747 88.2056 18.5498C88.2187 18.5791 88.2169 18.617 88.2376 18.6412C89.5409 20.1849 89.8291 22.0702 90.4487 23.8588C90.735 24.6867 91.4808 25.4664 92.2172 26.0632C94.0988 27.5914 94.9068 29.3714 94.2965 31.6396C93.9067 33.0936 94.2155 34.3873 95.5 35.3911C96.6847 36.3156 97.4851 37.4161 97.8694 38.8218C98.1387 39.8084 98.5719 40.7847 99.103 41.6799C99.7528 42.7752 99.9279 43.8946 99.8714 45.1072C99.8338 45.9333 100.056 46.7734 99.9863 47.5961C99.8978 48.6293 99.8865 49.7694 99.3893 50.6508C98.2856 52.6068 97.8863 54.6317 97.9391 56.7792C97.9522 57.357 97.9391 57.9348 97.973 58.5109C98.1067 60.6532 97.6302 62.5746 95.807 64.1063C94.9199 64.8514 94.5414 65.8415 94.5282 66.9644C94.5112 68.4322 93.7145 69.6085 92.5996 70.5952C91.6522 71.4334 91.0702 72.3873 90.8725 73.5929C90.7727 74.2001 90.5146 74.8693 90.0909 75.3316C88.9721 76.5545 87.7272 77.6825 86.5237 78.8399C86.2826 79.071 86.0321 79.3781 85.727 79.4539C84.2146 79.8265 83.2428 80.8545 82.1636 81.7618C81.9583 81.9343 81.7417 82.1499 81.4893 82.2189C79.3252 82.807 78.0163 84.4543 76.3212 85.622C74.8691 86.6207 73.3963 87.5987 71.8801 88.5128C71.3735 88.8181 70.7161 88.9958 70.1059 89.0596C68.4146 89.239 66.9211 89.8116 65.5594 90.7103C63.7306 91.9177 62.7512 92.2074 60.4817 92.2109H60.476ZM41.6758 11.1381C38.9561 11.2657 36.1573 11.7125 33.8502 13.5839C33.1213 14.1756 32.1984 14.5636 31.4507 15.138C29.7707 16.4316 28.1528 17.7908 26.4973 19.1121C25.6422 19.7934 24.7928 20.4868 23.8831 21.1042C22.932 21.7476 21.7944 22.1943 20.9488 22.9274C19.6021 24.0934 18.4683 25.4612 17.1725 26.6807C15.1704 28.5642 13.0893 30.3201 11.8858 32.8401C11.025 34.6425 10.0758 36.3898 9.81023 38.3458C9.54655 40.2828 9.43167 42.237 9.26404 44.1844C9.17929 45.1727 9.04933 46.1645 9.07947 47.1494C9.12278 48.5499 9.26592 49.9505 9.42037 51.3476C9.62566 53.1967 9.88557 55.0129 10.8913 56.7153C11.5995 57.9141 12.1683 59.2405 12.4545 60.5704C12.8614 62.4608 13.4094 64.2357 14.7636 65.7604C15.1064 66.1468 15.2439 66.6763 15.5113 67.123C16.0895 68.0959 16.5114 69.2084 17.3175 69.9915C18.8676 71.5007 20.6418 72.8202 22.3199 74.2208C22.6043 74.4588 22.8774 74.7106 23.1505 74.9607C24.8568 76.5269 26.5237 78.1327 28.2903 79.6402C28.8252 80.0973 29.6068 80.4526 30.3282 80.5578C31.7144 80.7597 32.8237 81.3392 33.9123 82.0826C35.0819 82.8812 36.4041 83.3883 37.9108 83.3814C41.3273 83.3659 44.742 83.378 48.1585 83.3314C49.6181 83.3124 50.993 82.9778 52.2493 82.2206C53.513 81.4582 54.8917 81.0374 56.4549 81.4341C56.9521 81.56 57.5153 81.6169 58.02 81.5427C60.9375 81.1132 63.8549 80.6751 66.7497 80.1439C67.5464 79.9973 68.2865 79.5488 69.0173 79.1797C69.7217 78.8227 70.3922 78.4087 71.0514 77.9844C72.1909 77.253 73.4339 76.608 74.4095 75.7231C76.1724 74.1276 77.7997 72.4045 79.4251 70.6866C80.1728 69.8966 80.8113 69.0152 81.4403 68.1407C81.8773 67.5301 82.0826 66.7505 82.6156 66.2365C84.0903 64.8135 84.6534 63.0645 85.162 61.2482C85.4087 60.3651 85.9342 59.551 86.2807 58.6868C86.8928 57.1638 87.8458 55.6546 87.9814 54.0919C88.2884 50.5508 88.2621 46.9803 88.2131 43.4237C88.1905 41.6954 87.7441 40.0344 86.5199 38.5579C85.7533 37.6334 85.1864 36.4933 84.8531 35.3704C84.4199 33.9129 83.7946 32.5986 82.77 31.4223C81.8886 30.4098 81.3951 29.3214 81.623 27.957C81.7906 26.9463 81.3914 25.9873 80.5702 25.2318C79.135 23.914 77.7319 22.5669 76.2421 21.3026C74.1873 19.5605 72.1532 17.7822 69.9458 16.2109C67.9023 14.7551 65.4972 13.8927 62.8472 13.8565C61.8829 13.8427 61.1691 13.5494 60.5193 12.9388C59.28 11.7763 57.7827 11.2968 56.0048 11.64C54.7448 11.8832 53.562 11.6901 52.447 11.0915C51.3546 10.5034 50.2246 10.4723 48.9909 10.7742C47.8157 11.0605 46.5858 11.2312 45.3691 11.2933C44.2165 11.352 43.0525 11.2036 41.6814 11.1364L41.6758 11.1381Z" fill="#A71714"/>
<path d="M20.8848 57.357C20.495 56.4997 20.3368 55.4321 19.6719 54.8232C17.7941 53.1001 17.2329 50.994 17.2875 48.7535C17.3685 45.3987 17.6642 42.0473 17.9147 38.6994C17.9938 37.6438 18.6116 36.8158 19.3838 36.0052C21.8699 33.3937 25.0114 31.4809 27.8252 29.2214C29.46 27.9087 31.0082 26.5082 32.6204 25.1714C33.1346 24.7454 33.6827 24.3142 34.2985 24.0365C36.31 23.1275 38.3498 22.272 40.3989 21.4354C40.834 21.2578 41.3613 21.2785 41.8322 21.1612C42.7362 20.9369 43.6949 20.792 44.5179 20.4109C46.3712 19.5519 47.4354 19.564 48.8988 20.8886C50.042 21.9235 51.2342 22.2271 52.7108 21.5958C53.5828 21.2233 54.4059 21.3302 55.1819 21.8804C56.585 22.8739 58.0898 23.3155 59.9205 22.8567C60.4987 22.7118 61.4216 23.0085 61.9132 23.3931C63.4764 24.6177 65.1884 25.4836 67.0869 26.2546C69.4676 27.2223 71.6712 28.6228 73.0988 30.7858C73.5056 31.4033 74.2081 31.8552 74.6714 32.4503C75.2704 33.2178 75.9446 33.9957 76.2667 34.8668C76.9353 36.6813 77.619 38.5321 77.8864 40.4173C78.2801 43.1926 78.5324 45.9696 77.4137 48.7655C76.7187 50.5042 76.7978 52.4912 76.4061 54.3454C76.2554 55.0578 75.9314 55.8546 75.3984 56.36C74.065 57.6278 73.1252 59.0232 72.7504 60.7566C72.6468 61.2396 72.3492 61.7088 72.0516 62.1313C71.3152 63.1714 70.6051 64.2426 69.7369 65.1895C68.2791 66.7798 66.7366 68.308 65.1621 69.8035C64.8023 70.145 64.1526 70.2209 63.6572 70.4572C62.8229 70.8539 61.9414 71.2006 61.1956 71.7111C59.9808 72.5442 58.685 72.8892 57.1707 72.8271C55.3796 72.7547 53.5376 72.5908 51.7992 72.8754C49.3772 73.2721 47.038 74.0724 44.6479 74.6485C43.742 74.8676 42.7965 74.9797 41.8623 75.0746C40.6758 75.1953 39.4798 75.3212 38.2914 75.304C37.4438 75.2919 36.504 75.2177 35.7714 74.8762C33.3606 73.7568 31.0214 72.5097 29.2811 70.5348C29.0438 70.2657 28.7217 70.0346 28.3902 69.8673C25.6725 68.4891 24.324 66.2537 23.5254 63.6251C23.337 63.0024 22.966 62.3504 22.4744 61.895C21.1259 60.6445 20.4931 59.1991 20.608 57.4622C20.7021 57.426 20.7944 57.3898 20.8886 57.3535L20.8848 57.357Z" fill="#A71714"/>
</svg>
