<svg width="172" height="105" viewBox="0 0 172 105" fill="none" xmlns="http://www.w3.org/2000/svg">
<path d="M18.5998 44.3542C24.046 43.5132 29.6488 43.7291 35.0279 44.9679C35.9785 45.1839 36.9514 45.4453 37.902 45.2748C38.5842 45.1611 39.2216 44.8315 39.8255 44.5133C49.5996 39.3307 58.6244 31.6136 62.6616 21.1802C63.422 19.2027 64.0147 17.1342 64.1266 15.0089C64.4062 9.87171 61.6886 4.67775 57.3384 2.02962C56.9693 1.80232 56.5779 1.59774 56.153 1.52955C55.6497 1.46135 55.1577 1.59774 54.7103 1.85914C54.5426 1.95007 54.3972 2.06372 54.2518 2.17737C52.373 3.72306 52.2612 6.5303 52.1494 8.98522C52.0599 11.0764 51.8474 13.179 51.1764 15.1452C49.32 20.5438 44.1981 24.1125 38.9756 26.2606C33.753 28.3972 28.1279 29.4997 23.0731 32.0114C19.8299 33.6253 16.7881 35.9552 14.7751 39.0352C14.0818 40.0922 12.449 42.6494 12.7622 44.0019C13.1536 45.7067 17.1012 44.5701 18.5998 44.3428V44.3542Z" fill="#FAFBFB"/>
<path d="M138.741 59.1633C136.415 58.9928 134.089 58.8223 131.763 58.6632C131.226 67.6191 133.932 76.7227 139.188 83.917C148.303 76.8136 158.356 71.04 169.025 66.5962C163.646 56.3674 156.22 47.1387 146.536 41.1037C139.378 36.6371 130.32 33.057 127.871 24.8854C126.316 19.7028 127.647 13.1222 123.588 9.61032C120.244 6.72352 114.72 7.98508 111.868 11.3833C109.027 14.7816 108.401 19.5891 108.815 24.0216C110.313 40.2513 123.823 53.151 138.73 59.1746L138.741 59.1633Z" fill="#FAFBFB"/>
<path d="M84.1444 102.829C76.6293 102.511 69.3154 103.056 62.147 104.375C60.5143 100.51 57.7185 97.0099 54.2629 94.7595C46.1439 89.4633 35.956 89.0882 26.3161 88.6791C23.9676 88.5768 21.5744 88.4631 19.3937 87.5766C15.2335 85.8946 12.6055 81.803 10.2346 77.9502C5.7949 70.7104 1.24334 61.7318 5.03445 54.117C8.05391 48.0479 15.4684 45.5021 22.1559 45.7635C28.8435 46.0135 35.2514 48.4344 41.8383 49.6732C52.6413 51.7076 65.5467 49.5709 71.3955 40.1036C72.6704 38.0351 73.7216 35.5347 75.9359 34.58C78.7764 33.3639 82.1761 35.5801 83.2273 38.5124C84.2786 41.456 83.5405 44.7406 82.3774 47.6388C78.6422 56.9697 70.3331 64.2777 60.7044 66.6985C51.4335 69.0284 41.1673 66.7553 33.6411 60.7885C35.6317 62.8229 35.4639 66.6189 33.8088 69.1079C31.9524 71.9152 28.8658 73.5518 26.0812 75.4157C38.0584 70.8696 50.9974 75.6771 62.7062 81.6098C64.5067 82.519 66.2848 83.4624 68.0182 84.3943C77.2779 89.8611 81.8742 96.9076 84.1444 102.829Z" fill="#FAFBFB"/>
<path d="M56.7459 35.637C55.8848 36.3416 55.0684 37.1258 54.1961 37.8191C52.7535 38.967 51.2773 40.0922 49.7564 41.1264C46.9718 43.0131 43.3373 44.0587 40.7539 45.9681C45.5515 47.2069 50.953 47.5024 55.8401 46.6614C60.7159 45.8203 65.8938 43.4563 69.0586 39.3762C64.1604 39.0125 60.2239 32.8411 56.7571 35.6483L56.7459 35.637Z" fill="#FAFBFB"/>
<path d="M129.761 58.254C129.694 67.9941 131.83 77.7342 135.945 86.531C137.008 85.6445 138.104 84.7807 139.188 83.9283C133.932 76.7227 131.226 67.6191 131.763 58.6632C134.089 58.8336 136.415 59.0041 138.741 59.1746C123.823 53.151 110.325 40.2513 108.815 24.0216C108.412 19.5777 109.027 14.7702 111.868 11.3833C114.72 7.98507 120.244 6.72351 123.588 9.61031C127.647 13.1222 126.317 19.7027 127.871 24.8853C130.309 33.057 139.367 36.6371 146.525 41.1037C156.22 47.1501 163.646 56.3674 169.025 66.5962C170.009 66.187 171.005 65.7892 172 65.4028C165.983 53.8329 157.931 43.8427 146.815 37.0917C141.313 33.7503 134.894 31.0113 131.863 25.2831C128.956 19.8164 129.582 12.2925 124.852 8.37149C120.512 4.76867 113.467 6.54167 109.955 10.9855C106.433 15.418 105.84 21.6008 106.601 27.238C108.412 40.6832 117.515 52.8782 129.772 58.254H129.761Z" fill="#A61E22"/>
<path d="M8.63555 81.5189C9.36246 82.4281 10.1006 83.2919 10.8498 84.1102C13.1088 86.5765 15.8823 88.6791 19.0918 89.6451C22.9165 90.8044 27.0095 90.3611 30.9348 90.5544C36.012 90.8044 41.4247 91.5318 46.1552 93.5775C50.8633 95.6119 54.8893 98.9988 58.3672 102.806C59.3513 103.886 60.794 105.113 62.0577 104.386C60.2572 99.2943 56.0299 95.3619 51.2324 93.0093C46.1216 90.4975 40.3623 89.5315 34.7371 89.1792C30.9348 88.9405 27.099 89.1792 23.3191 88.5995C16.9223 87.5994 13.4891 83.2123 10.2348 77.9388C5.79502 70.6991 1.24346 61.7205 5.03456 54.1057C8.05403 48.0366 15.4685 45.4907 22.156 45.7521C28.8436 46.0022 35.2516 48.423 41.8385 49.6618C52.6414 51.6962 65.5468 49.5595 71.3957 40.0922C72.6705 38.0237 73.7218 35.5233 75.936 34.5686C78.7766 33.3525 82.1762 35.5688 83.2275 38.501C84.2787 41.4447 83.5406 44.7293 82.3776 47.6274C78.6424 56.9584 70.3332 64.2663 60.7045 66.6871C51.4336 69.017 41.1675 66.7439 33.6412 60.7771C35.6318 62.8115 35.464 66.6076 33.8089 69.0966C31.9525 71.9038 28.866 73.5404 26.0813 75.4043C29.8948 73.6995 37.5106 73.6541 37.5106 73.6541C37.5888 72.1766 37.6559 67.3577 37.7342 65.8802C68.488 84.6898 86.3029 46.5932 87.2422 44.5361C87.2534 44.502 87.2646 44.4792 87.2646 44.4679C88.5171 40.4104 86.8844 35.4892 83.2834 33.2503C79.1568 30.6817 73.1402 32.0342 70.4786 36.1371C66.4862 35.762 62.628 34.1822 59.4855 31.6591C62.6728 26.9539 65.9271 22.0895 67.0342 16.4977C68.1525 10.906 66.5869 4.34817 61.8452 1.30225C57.1035 -1.75503 49.3536 0.813543 48.6602 6.47349C48.157 10.5423 49.9798 14.5429 47.1169 18.1116C44.2205 21.7258 39.5012 22.4986 35.2963 23.6124C29.7494 25.0899 24.6834 26.8061 19.9418 30.2157C15.6921 33.273 12.0352 37.194 9.31773 41.7174C5.42598 48.2184 0.136325 53.7193 0.00212682 61.7773C-0.109705 69.1648 4.20701 75.9726 8.62437 81.5189H8.63555ZM37.9132 45.2748C36.9514 45.4339 35.9785 45.1839 35.0279 44.9679C29.66 43.7177 24.0572 43.5132 18.611 44.3542C17.1124 44.5815 13.1647 45.718 12.7733 44.0132C12.4602 42.6608 14.093 40.1036 14.7863 39.0466C16.7993 35.9666 19.8411 33.6253 23.0842 32.0228C28.1502 29.4997 33.7642 28.3973 38.9867 26.2606C44.2093 24.1239 49.3312 20.5552 51.1876 15.1566C51.8698 13.179 52.0711 11.0765 52.1717 8.98523C52.2724 6.54168 52.3954 3.73444 54.263 2.18875C54.4084 2.06373 54.5649 1.95008 54.7327 1.85916C55.1688 1.60912 55.6721 1.46137 56.1641 1.52956C56.6003 1.59775 56.9805 1.80233 57.3496 2.02964C61.6998 4.6664 64.4173 9.87173 64.1378 15.0089C64.0259 17.1342 63.4444 19.2027 62.6839 21.1803C58.6356 31.6023 49.622 39.3194 39.8367 44.5133C39.2216 44.8315 38.5953 45.1611 37.9132 45.2748ZM55.8398 46.65C50.9528 47.491 45.5513 47.1955 40.7537 45.9567C43.337 44.0473 46.9716 43.0017 49.7562 41.1151C51.2883 40.0808 52.7644 38.9557 54.2071 37.8078C55.0794 37.1145 55.8846 36.3303 56.7568 35.637C60.2236 32.8184 64.1601 38.9898 69.0584 39.3534C65.8935 43.445 60.7157 45.809 55.8398 46.65Z" fill="#A61E22"/>
<path d="M33.6525 60.7885C33.4064 60.5385 33.1269 60.2998 32.8026 60.1066C33.0821 60.3452 33.3617 60.5612 33.6525 60.7885Z" fill="#A61E22"/>
</svg>
