<svg width="190" height="64" viewBox="0 0 190 64" fill="none" xmlns="http://www.w3.org/2000/svg">
<path d="M158.458 8.75338C158.458 5.87094 158.458 2.97885 158.458 0.0482015C158.795 0.0289209 159.027 0.0192806 159.374 0C159.393 0.404892 159.422 0.761583 159.422 1.10863C159.422 6.82533 159.422 12.542 159.422 18.2684C159.422 18.7696 159.345 19.2613 159.807 19.6758C159.952 19.8108 159.885 20.1868 159.913 20.4471C159.017 20.5338 158.554 20.1771 158.496 19.377C158.458 18.9335 158.496 18.4804 158.496 17.8538C158.246 18.0948 158.082 18.2201 157.956 18.3648C157.07 19.3866 155.99 20.1193 154.698 20.5338C153.146 21.0351 151.632 20.9194 150.186 20.2157C144.855 17.6128 144.518 10.373 148.779 6.99885C151.295 5.00331 154.688 5.22504 157.099 7.50015C157.523 7.90504 157.899 8.35813 158.294 8.79195C158.352 8.7823 158.41 8.76302 158.467 8.75338H158.458ZM158.439 13.2361C158.439 12.6481 158.41 12.0504 158.439 11.4623C158.487 10.7778 158.265 10.1898 157.908 9.63065C157.147 8.46418 156.106 7.62547 154.833 7.08561C152.76 6.19871 150.591 6.6036 148.981 8.15569C146.35 10.6911 146.176 15.1063 148.634 17.8153C151.565 21.0448 155.489 20.0614 157.619 17.5164C158.178 16.8416 158.458 16.0607 158.448 15.1835C158.439 14.5376 158.448 13.8917 158.448 13.2361H158.439Z" fill="white"/>
<path d="M168.425 13.8627C168.435 11.0188 169.235 9.08115 170.874 7.52906C173.303 5.21539 176.851 5.03222 179.531 7.04704C183.416 9.97769 183.56 16.1378 179.82 19.242C176.61 21.9027 171.963 21.1508 169.678 17.5935C168.84 16.2824 168.406 14.8364 168.435 13.8627H168.425ZM181.507 13.4386C181.488 11.5587 180.967 10.0355 179.859 8.74374C177.767 6.2951 174.45 5.93841 172.002 7.88575C168.888 10.3537 168.579 15.2606 171.346 18.1141C173.429 20.2446 176.6 20.476 178.943 18.6347C180.678 17.2754 181.44 15.4245 181.507 13.4386Z" fill="white"/>
<path d="M130.53 5.95772H131.484C131.484 6.29513 131.484 6.59398 131.484 6.89283C131.484 9.34146 131.465 11.7997 131.503 14.2484C131.513 15.116 131.6 16.0029 131.802 16.8416C132.438 19.5023 134.193 20.2157 136.487 19.7337C138.849 19.2324 140.392 17.6996 141.24 15.463C141.365 15.1353 141.365 14.74 141.365 14.3833C141.375 11.9058 141.365 9.41858 141.365 6.94103C141.365 6.63254 141.365 6.33369 141.365 5.96736H142.349C142.349 6.33369 142.349 6.66146 142.349 6.98923C142.349 10.7682 142.349 14.5472 142.349 18.3262C142.349 18.7986 142.291 19.271 142.715 19.6566C142.869 19.8012 142.811 20.1675 142.85 20.4278C141.963 20.5724 141.471 20.2253 141.423 19.4156C141.375 18.7504 141.423 18.0756 141.423 17.1983C141.134 17.5646 140.97 17.7767 140.806 17.9792C139.36 19.8108 137.48 20.8134 135.118 20.8327C133.161 20.8423 131.802 19.8976 131.069 18.0852C130.645 17.0537 130.481 15.9643 130.472 14.8653C130.433 12.0697 130.452 9.28362 130.452 6.48793C130.452 6.32405 130.491 6.16016 130.52 5.95772H130.53Z" fill="white"/>
<path d="M107.431 18.4804C107.595 18.278 107.749 18.0948 107.942 17.8634C108.25 18.0948 108.52 18.2876 108.781 18.4901C110.554 19.8204 112.54 20.2542 114.69 19.7819C115.307 19.6469 115.943 19.3866 116.454 19.0299C118.228 17.8056 118.026 15.328 116.059 14.4797C114.96 14.0073 113.755 13.7567 112.598 13.4193C111.894 13.2168 111.181 13.0626 110.477 12.8408C109.407 12.4938 108.385 12.0214 108.154 10.7585C107.894 9.32214 108.135 7.98214 109.301 6.97955C109.745 6.60358 110.265 6.27581 110.805 6.08301C112.56 5.44675 114.343 5.48531 116.098 6.13121C116.917 6.4397 117.659 6.89279 118.209 7.72186C118.026 7.88574 117.852 8.03998 117.688 8.19423C117.563 8.12675 117.476 8.10747 117.418 8.05927C115.548 6.37221 113.379 6.18905 111.104 6.89279C109.629 7.34588 108.848 8.77265 109.089 10.2091C109.205 10.9032 109.542 11.4334 110.188 11.6937C110.815 11.9443 111.461 12.1564 112.106 12.3299C113.186 12.6288 114.285 12.8794 115.375 13.1783C115.857 13.3132 116.339 13.4964 116.792 13.7085C118.286 14.4122 119.019 15.5112 118.537 17.6224C118.267 18.7889 117.466 19.5891 116.425 20.1289C113.842 21.4593 109.822 20.8519 107.739 18.8275C107.643 18.7311 107.566 18.6154 107.441 18.4708L107.431 18.4804Z" fill="white"/>
<path d="M122.528 6.78681H120.542C120.513 6.4976 120.494 6.26623 120.475 5.9481C121.15 5.91918 121.757 5.89026 122.451 5.86134C122.644 4.23213 122.422 2.60292 122.586 0.915873C122.875 0.896592 123.136 0.877312 123.521 0.848391C123.521 2.5258 123.521 4.14537 123.521 5.87098C124.717 5.87098 125.796 5.87098 126.953 5.87098C126.972 6.19875 126.982 6.43976 127.001 6.77717C125.845 6.77717 124.755 6.77717 123.608 6.77717C123.579 7.11458 123.541 7.35559 123.541 7.60623C123.541 10.9611 123.569 14.3159 123.521 17.6707C123.502 19.2903 124.63 19.8783 125.777 19.6952C126.413 19.5988 127.021 19.377 127.753 19.1842C127.84 19.3385 127.965 19.5698 128.12 19.8687C126.838 20.6013 125.575 20.9677 124.186 20.5242C123.213 20.2157 122.625 19.5409 122.538 18.4901C122.509 18.1816 122.509 17.8731 122.509 17.5647C122.509 14.3544 122.509 11.1346 122.509 7.92436V6.80609L122.528 6.78681Z" fill="white"/>
<path d="M164.03 5.95766H164.917C164.917 10.8164 164.917 15.6172 164.917 20.4663C164.743 20.4952 164.618 20.5338 164.483 20.5338C164.348 20.5338 164.203 20.5049 164.078 20.4856C163.905 19.859 163.856 7.17233 164.03 5.95766Z" fill="white"/>
<path d="M164.916 2.35224H164V0.0385743H164.916V2.35224Z" fill="white"/>
<path d="M0 45.3672C0 35.5823 7.97252 27.6195 17.7478 27.6195C24.0429 27.6195 29.721 30.82 32.9698 36.209L27.5809 39.4577C25.4793 35.9776 21.8063 33.9242 17.7478 33.9242C11.4527 33.9242 6.29511 39.0818 6.29511 45.3769C6.29511 51.7202 11.4527 56.8295 17.7478 56.8295C22.8089 56.8295 27.1953 53.629 28.6702 48.857L34.6858 50.7658C32.3432 58.1599 25.5275 63.1246 17.7478 63.1246C7.96288 63.1246 0 55.1521 0 45.3769L0 45.3672Z" fill="white"/>
<path d="M65.0331 27.899V62.874H58.738V47.1796H43.3714V62.874H37.0763V27.899H43.3714V40.8748H58.738V27.899H65.0331Z" fill="white"/>
<path d="M73.7191 62.874H67.424V27.8991H73.7191V62.874Z" fill="white"/>
<path d="M101.301 34.1941H91.8531V62.874H85.558V34.1941H76.1105V27.899H101.301V34.1941Z" fill="white"/>
<path d="M140.806 55.4799L142.618 61.5436L142.001 61.7364C140.092 62.3052 137.47 63.1246 133.797 63.1246C125.401 63.1246 118.286 58.4973 112.136 48.9534L109.986 51.3827V62.8836H103.691V27.899H109.986V41.9256L122.537 27.899H130.982L116.522 44.0754C121.728 52.7613 127.261 56.8199 133.797 56.8199C136.516 56.8199 138.425 56.2511 140.141 55.7209L140.806 55.4799ZM152.596 62.874H146.06L142.146 49.8499H134.8L133.605 53.8121H127.02L134.752 27.899H142.194L152.596 62.874ZM140.285 43.5452L138.473 37.4814L136.66 43.5452H140.285Z" fill="white"/>
<path d="M178.258 56.5789L180.167 62.874H154.977V27.899H161.272V56.5789H178.258ZM190 62.874H183.464L179.55 49.8499H172.204L171.009 53.8121H164.424L172.156 27.899H179.598L190 62.874ZM177.689 43.5452L175.877 37.4814L174.065 43.5452H177.689Z" fill="white"/>
</svg>
